<?xml version="1.0" standalone="no"?>
<!DOCTYPE svg PUBLIC "-//W3C//DTD SVG 20010904//EN"
 "http://www.w3.org/TR/2001/REC-SVG-20010904/DTD/svg10.dtd">
<svg version="1.0" xmlns="http://www.w3.org/2000/svg"
 width="1024.000000pt" height="1024.000000pt" viewBox="0 0 1024.000000 1024.000000"
 preserveAspectRatio="xMidYMid meet">
<metadata>
Created by potrace 1.14, written by Peter Selinger 2001-2017
</metadata>
<g transform="translate(0.000000,1024.000000) scale(0.100000,-0.100000)"
fill="#000000" stroke="none">
<path d="M9801 10127 c3 -91 7 -117 22 -131 9 -10 17 -31 17 -47 0 -18 5 -29
14 -29 8 0 18 -22 26 -60 8 -38 18 -60 26 -60 10 0 14 -13 14 -40 0 -33 3 -40
20 -40 17 0 20 -7 20 -40 0 -33 3 -40 20 -40 17 0 20 -7 20 -40 0 -33 3 -40
20 -40 17 0 20 -7 20 -40 0 -33 3 -40 20 -40 13 0 20 -7 20 -20 0 -13 7 -20
20 -20 17 0 20 -7 20 -40 0 -33 3 -40 20 -40 19 0 20 -7 20 -115 0 -105 11
-165 31 -165 4 0 10 -18 14 -40 4 -25 12 -40 21 -40 12 0 14 93 14 620 l0 620
-221 0 -221 0 3 -113z"/>
<path d="M4793 8803 c37 -2 96 -2 130 0 34 2 4 3 -68 3 -71 0 -99 -1 -62 -3z"/>
<path d="M5043 8803 c26 -2 67 -2 90 0 23 2 2 3 -48 3 -49 0 -68 -1 -42 -3z"/>
<path d="M5275 8804 c442 -17 799 -46 1016 -84 185 -32 225 -50 166 -75 -45
-19 -361 -33 -517 -24 -58 4 -199 10 -313 13 -114 4 -216 10 -225 13 -12 4
-14 3 -7 -5 6 -6 26 -12 45 -14 19 -2 -145 -4 -365 -6 -463 -2 -801 -23 -1153
-69 -26 -3 -45 -3 -42 0 6 7 261 42 415 57 217 21 423 30 737 30 193 1 318 5
318 11 0 5 -19 9 -42 9 -24 0 -50 4 -57 9 -9 6 -22 6 -33 0 -14 -7 -20 -6 -24
6 -4 9 -13 14 -21 11 -8 -3 -11 -1 -8 4 3 6 2 10 -4 10 -5 0 -13 -4 -16 -10
-3 -5 -11 -10 -16 -10 -6 0 -7 5 -3 12 5 8 2 9 -9 5 -10 -4 -17 -1 -17 6 0 8
-4 6 -10 -3 -9 -13 -10 -13 -11 0 -1 8 -1 17 -1 20 0 3 -14 6 -31 6 -33 2 -97
11 -132 18 -11 3 -58 8 -105 12 -47 3 -86 10 -88 15 -2 5 -27 10 -55 11 l-52
1 55 7 55 7 -45 1 c-145 5 -609 -39 -830 -79 -215 -39 -420 -111 -472 -166
-31 -33 -33 -117 -3 -141 39 -33 58 -85 51 -135 -12 -77 -225 -470 -327 -603
-77 -100 -70 217 -74 -3267 l-4 -3127 33 -43 c33 -43 107 -99 185 -138 43 -21
101 -69 101 -83 0 -3 -8 -2 -17 3 -10 6 -45 15 -78 21 -33 6 -82 16 -110 21
-195 39 -395 51 -1310 76 -137 4 -304 8 -370 10 -66 2 -161 0 -210 -4 -55 -5
-101 -5 -118 1 -19 7 -38 6 -61 -2 -19 -7 -77 -13 -130 -13 -68 0 -95 -4 -93
-12 1 -7 -11 -12 -33 -12 -53 -1 -130 -16 -130 -26 0 -14 -28 -11 -33 4 -2 7
-8 8 -13 3 -5 -5 -4 -11 4 -13 6 -3 12 -11 12 -19 0 -9 6 -11 18 -7 15 6 16 5
2 -12 -9 -11 -10 -16 -3 -11 7 4 13 3 13 -3 0 -6 7 -8 16 -4 10 4 22 0 28 -9
6 -8 13 -15 16 -16 3 0 18 -6 34 -12 16 -6 38 -8 49 -4 12 4 17 2 13 -4 -3 -6
13 -10 42 -11 26 -1 61 -3 77 -5 17 -1 47 -4 68 -4 21 -1 36 -5 34 -9 -3 -5
16 -8 41 -7 26 0 53 -4 59 -9 7 -5 25 -7 39 -4 14 2 38 1 52 -4 30 -9 223 -29
317 -32 33 -2 67 -7 75 -12 8 -5 51 -8 95 -8 44 1 97 -2 117 -6 20 -5 38 -5
40 -1 2 5 20 3 40 -5 27 -9 38 -9 42 -1 3 7 7 8 13 1 4 -5 55 -12 113 -14 64
-2 108 -8 112 -15 6 -8 8 -8 8 0 0 8 13 9 39 4 21 -4 47 -3 56 3 11 6 20 6 24
-1 3 -5 29 -9 56 -9 28 0 80 -2 118 -5 46 -4 67 -2 67 6 0 7 4 6 9 -2 6 -10
38 -14 115 -15 58 -1 106 -4 106 -7 0 -3 21 -5 48 -4 26 0 55 -3 65 -8 12 -6
23 -5 32 2 8 7 15 7 19 1 3 -5 21 -8 39 -7 17 1 40 -2 51 -7 11 -6 16 -5 13 0
-4 5 0 10 8 10 8 0 12 -4 9 -9 -3 -4 9 -5 25 -2 37 8 143 -4 136 -15 -2 -5 5
-9 18 -9 37 -2 58 -8 65 -19 12 -17 68 -42 108 -48 54 -7 851 -15 1454 -15
514 0 987 12 1230 30 293 23 623 75 645 104 6 7 20 18 33 25 18 10 22 20 22
64 0 81 -1 81 -116 63 -55 -8 -139 -20 -189 -26 -49 -5 -141 -17 -204 -27
l-114 -16 52 -14 c52 -13 140 -75 141 -100 0 -6 12 -13 28 -15 42 -5 -244 -37
-428 -48 -193 -11 -612 -15 -655 -6 -16 4 -36 7 -42 8 -7 1 -13 5 -13 9 0 4
-10 11 -21 14 -15 5 -18 10 -9 15 6 4 12 11 12 16 1 20 18 54 28 55 20 3 25 5
44 16 21 12 -7 14 -469 33 -280 12 -375 19 -375 29 0 5 19 16 43 25 67 28 72
32 75 55 5 30 -14 45 -88 69 -106 35 -149 40 -765 97 -181 16 -279 28 -440 50
-55 8 -106 15 -112 15 -7 0 -13 4 -13 8 0 4 68 -2 151 -14 150 -23 397 -44
729 -65 454 -27 1752 -21 2295 12 497 29 815 85 815 143 0 11 -17 9 -83 -9
-140 -38 -466 -75 -842 -95 -104 -6 -494 -13 -865 -16 -716 -7 -1000 0 -1520
37 -312 22 -491 42 -292 33 93 -5 112 -3 112 9 0 16 47 40 61 32 10 -7 59 38
59 54 0 19 43 61 64 63 12 1 -4 5 -34 8 -30 4 -1 5 65 2 473 -20 1829 -16
2380 8 424 18 791 63 847 105 16 12 18 16 5 11 -129 -44 -527 -87 -977 -107
-347 -15 -1482 -14 -1870 1 -286 11 -510 25 -447 29 15 0 27 5 27 10 0 5 12
12 28 14 19 3 14 4 -16 6 -27 0 -41 -3 -37 -9 3 -5 1 -10 -4 -10 -6 0 -11 7
-11 15 0 14 24 15 218 8 282 -10 1757 -7 1977 5 l170 9 -144 1 c-158 2 -183 9
-50 15 46 2 90 6 97 11 6 4 12 3 12 -3 0 -12 31 -2 43 13 5 7 7 4 3 -7 -5 -15
-2 -17 13 -12 11 3 22 1 26 -5 19 -30 662 15 850 59 41 10 86 26 100 35 l26
17 -3 2782 c-3 2598 -4 2783 -20 2799 -34 34 -245 87 -448 112 -154 19 -445
46 -479 45 -14 -1 34 -9 107 -18 73 -10 135 -21 139 -24 3 -4 1 -7 -5 -7 -7 0
-12 -12 -11 -27 1 -33 -3 -53 -14 -71 -5 -7 -2 -14 6 -18 13 -5 13 -9 1 -32
-7 -14 -10 -29 -6 -32 9 -6 10 -70 1 -70 -4 0 -5 -10 -2 -22 3 -17 2 -19 -5
-10 -7 11 -10 11 -15 -3 -4 -10 -3 -14 3 -10 12 8 8 -74 -5 -95 -5 -8 -4 -11
2 -7 6 4 13 0 17 -8 3 -8 2 -15 -3 -15 -14 0 -20 -39 -7 -44 8 -3 8 -5 -1 -5
-6 -1 -9 -10 -5 -23 4 -16 2 -19 -9 -13 -8 5 1 -8 19 -28 39 -46 40 -69 5 -97
-16 -12 -23 -19 -17 -16 17 8 27 -26 12 -37 -9 -6 -6 -6 7 -1 74 27 134 1 173
-76 28 -55 30 -138 5 -169 l-18 -22 -1 23 c-10 149 -65 215 -149 176 -14 -6
-25 -17 -25 -25 0 -7 -4 -13 -8 -13 -4 0 -8 -12 -9 -27 0 -16 1 -20 4 -10 9
34 24 17 17 -19 -5 -28 -4 -35 6 -29 9 5 9 1 -1 -16 -14 -24 -17 -42 -22 -114
-1 -22 -6 -45 -10 -52 -11 -18 3 -61 21 -66 10 -2 -28 -6 -83 -8 l-100 -4 -85
70 c-128 106 -428 346 -490 392 -30 23 -71 55 -90 73 -33 29 -33 30 -5 13 28
-16 29 -16 16 0 -10 13 -10 17 -1 17 9 0 11 9 7 30 -5 23 -3 30 9 30 11 0 13
6 8 23 -4 12 -7 30 -6 39 0 10 -3 20 -8 23 -4 3 -6 14 -3 25 3 11 0 20 -6 20
-8 0 -9 6 -2 18 6 12 5 23 -5 36 -12 17 -12 22 3 38 9 10 12 18 7 18 -5 0 -2
5 6 10 13 8 12 10 -2 10 -11 0 -18 8 -18 19 0 11 -5 21 -10 23 -6 2 -2 12 8
24 17 18 18 23 6 39 -19 25 -18 41 1 25 20 -17 19 -5 -2 27 -10 15 -12 24 -5
20 6 -5 12 -4 12 0 0 5 -6 15 -12 22 -10 11 -10 13 0 7 22 -13 31 3 19 37 -7
17 -16 36 -22 40 -6 5 -3 7 7 4 24 -8 31 5 9 18 -15 7 35 10 187 9 179 -1 193
0 102 7 -58 4 -391 11 -741 15 -584 6 -783 3 -1214 -21 l-80 -4 60 12 c62 13
58 25 -8 28 -18 1 20 7 83 14 161 17 597 34 1125 44 l450 8 -495 1 c-441 1
-894 -8 -1095 -23 -57 -4 -64 -3 -37 5 37 12 47 50 12 50 -18 0 -20 7 -20 58
0 32 -5 63 -12 70 -9 9 -7 12 12 12 14 0 102 7 195 15 426 37 1374 45 1860 15
547 -33 1007 -102 1156 -174 29 -14 55 -24 56 -22 11 11 -43 137 -84 198 -28
40 -84 134 -125 208 -156 279 -188 359 -186 454 2 62 4 66 29 71 46 10 52 68
13 115 -118 140 -718 252 -1410 263 -131 3 -198 3 -149 1z m-1585 -141 c-25
-9 -56 -24 -69 -34 -27 -21 -55 -25 -49 -7 4 12 121 56 148 56 8 0 -5 -7 -30
-15z m1823 -40 c-7 -2 -19 -2 -25 0 -7 3 -2 5 12 5 14 0 19 -2 13 -5z m182
-33 c311 -15 658 -65 683 -98 15 -19 8 -59 -15 -84 -18 -20 -129 -45 -233 -53
-41 -3 -106 -8 -145 -10 -38 -3 -104 -10 -145 -16 -79 -10 -562 -13 -664 -4
-32 3 -71 12 -85 19 -14 8 -44 18 -66 22 -50 11 -57 36 -19 69 33 29 83 48
189 74 138 34 189 49 230 70 21 12 44 21 50 21 5 0 105 -5 220 -10z m729 -58
c2 -4 -11 -6 -30 -4 -19 2 -34 6 -34 8 0 8 59 4 64 -4z m-944 -642 c630 -22
1182 -89 1204 -145 6 -17 -27 -27 -154 -45 -71 -10 -117 -10 -275 4 -105 8
-282 20 -395 26 -312 15 -394 21 -380 30 8 5 -7 15 -41 28 -88 32 -125 40
-291 57 -188 19 -229 30 -148 39 154 17 164 17 480 6z m-1603 -246 c-3 -3 -12
-4 -19 -1 -8 3 -5 6 6 6 11 1 17 -2 13 -5z m-510 -70 c-3 -3 -12 -4 -19 -1 -8
3 -5 6 6 6 11 1 17 -2 13 -5z m-62 -11 c-11 -3 -40 -11 -64 -19 -24 -7 -40 -9
-35 -4 11 11 73 28 99 28 20 0 20 0 0 -5z m542 -149 c-3 -3 -12 -4 -19 -1 -8
3 -5 6 6 6 11 1 17 -2 13 -5z m-94 -11 c-7 -2 -21 -2 -30 0 -10 3 -4 5 12 5
17 0 24 -2 18 -5z m-383 -50 c-8 -3 -23 -14 -34 -25 -12 -10 -27 -16 -36 -12
-8 3 -21 7 -27 7 -7 0 -13 4 -13 9 0 11 28 10 35 -2 3 -5 11 -10 17 -10 7 0 6
5 -1 14 -10 12 -7 15 16 19 15 2 35 4 43 5 13 0 13 0 0 -5z m-123 -29 c-3 -3
-12 -4 -19 -1 -8 3 -5 6 6 6 11 1 17 -2 13 -5z m847 -289 c14 -13 31 -36 36
-50 14 -37 12 -108 -3 -130 -13 -16 -14 -13 -20 32 -7 64 -24 98 -54 112 -34
16 -93 14 -127 -4 -42 -22 -44 -11 -3 30 31 31 40 35 90 35 44 0 59 -5 81 -25z
m1311 -244 c267 -184 410 -288 505 -364 41 -34 68 -52 60 -41 -13 17 37 -27
103 -92 12 -12 54 -46 92 -76 l70 -55 95 -7 c52 -3 184 -13 293 -23 l197 -16
0 -677 c0 -571 2 -679 14 -689 41 -34 44 -194 6 -259 -20 -33 -20 -54 -20
-755 l1 -722 -188 -12 c-103 -6 -239 -12 -300 -12 l-113 -1 -67 -61 c-81 -74
-192 -154 -200 -145 -10 10 -16 116 -7 116 9 0 40 26 122 101 31 29 42 47 39
60 -3 10 -1 19 4 19 5 0 9 7 9 16 0 18 19 38 40 42 8 2 16 7 18 12 6 16 32 -2
32 -21 0 -12 -9 -21 -25 -25 -14 -3 -25 -10 -25 -15 0 -5 -7 -9 -15 -9 -8 0
-15 -5 -15 -11 0 -6 5 -7 13 -2 6 4 152 10 322 13 l310 5 0 38 c-1 20 -2 319
-3 663 -1 383 -6 623 -11 619 -5 -3 -13 0 -16 6 -4 6 9 24 30 42 48 39 65 81
65 157 0 114 -49 155 -100 85 -14 -19 -28 -35 -32 -35 -8 0 -73 196 -93 284
-14 61 -14 93 1 148 5 17 107 62 126 56 6 -2 9 -82 8 -195 0 -116 3 -194 9
-197 8 -5 17 750 16 1281 0 2 -258 22 -342 26 -52 3 -60 1 -51 -11 9 -10 8
-16 -3 -23 -11 -7 -11 -9 0 -9 11 0 11 -3 1 -15 -7 -8 -10 -21 -7 -29 3 -8 -1
-22 -8 -33 -8 -10 -11 -28 -8 -40 3 -15 1 -23 -8 -24 -48 -3 68 -19 212 -30
93 -7 173 -15 177 -18 5 -3 12 -21 15 -40 l7 -34 -112 7 c-62 4 -183 11 -268
16 -85 5 -197 10 -248 10 -93 0 -93 0 -85 23 4 12 8 56 8 97 -1 57 -6 85 -22
116 -37 69 -69 101 -116 113 -36 9 -49 19 -73 57 -22 35 -43 52 -86 72 -32 15
-58 33 -58 40 0 7 4 11 9 8 5 -4 7 3 4 14 -3 11 -9 20 -14 20 -5 0 -6 -8 -3
-17 3 -11 -6 -5 -23 13 -44 49 -80 67 -146 74 -61 7 -61 7 -14 9 56 1 111 -19
149 -56 26 -25 28 -25 34 -7 4 10 15 28 25 39 21 24 34 12 -246 213 -321 230
-366 262 -376 262 -5 0 -105 -68 -222 -152 -158 -113 -223 -153 -254 -159 -87
-17 -148 -63 -196 -147 -15 -27 -46 -58 -79 -80 -45 -31 -204 -152 -282 -214
-20 -16 -20 -17 20 -11 52 7 100 -9 141 -47 29 -26 31 -33 23 -55 -6 -15 -10
-38 -11 -53 -1 -16 -8 -1 -17 38 -15 57 -21 67 -52 82 -66 33 -136 15 -166
-44 -15 -30 -16 -44 -3 -163 21 -195 19 -701 -4 -825 -22 -126 -61 -248 -90
-284 -68 -85 -136 63 -172 379 -13 105 -16 229 -16 500 1 449 -12 554 -68 585
-53 28 -107 -5 -142 -87 -32 -73 -69 -263 -69 -351 0 -98 14 -148 52 -186 l30
-30 9 -225 c14 -373 43 -578 106 -742 31 -80 93 -157 147 -183 47 -22 118 -20
167 5 l41 20 -6 -38 c-3 -21 -15 -108 -27 -193 -38 -274 -98 -460 -174 -537
-23 -24 -51 -43 -62 -43 -39 0 -73 68 -73 147 0 57 14 83 46 83 14 0 36 11 49
25 51 50 25 185 -45 236 -67 49 -133 24 -182 -70 l-28 -53 0 787 c0 772 0 787
-20 812 -11 14 -27 48 -35 76 -16 54 -21 227 -6 227 4 0 13 32 20 71 13 80 45
181 68 219 26 42 55 60 100 60 34 0 46 -5 67 -30 14 -17 28 -47 32 -67 l7 -36
81 7 c44 3 101 6 126 6 43 0 51 6 160 100 138 121 433 353 585 461 61 43 180
130 265 192 l155 114 50 -35 c28 -20 145 -101 260 -181z m-1592 -91 c29 -34
33 -35 53 -15 9 8 23 15 33 15 19 0 54 -34 64 -62 5 -15 3 -15 -26 2 -39 24
-83 26 -95 4 -8 -14 -12 -13 -37 10 -58 54 -157 19 -205 -72 -6 -13 -12 -54
-12 -90 l-1 -67 -14 35 c-48 113 50 270 168 270 40 0 51 -4 72 -30z m1328 -88
c13 -11 86 -61 161 -112 136 -92 137 -93 115 -110 -15 -12 -32 -16 -53 -13
-17 3 -41 0 -52 -6 -18 -9 -23 -6 -42 24 -40 64 -156 99 -219 66 -19 -11 -25
-9 -42 14 -12 14 -36 33 -55 43 l-35 18 83 47 c93 52 105 55 139 29z m-1187
-24 c5 -9 7 -20 3 -24 -8 -8 -57 23 -57 37 0 16 42 6 54 -13z m765 -68 c19 -5
44 -19 56 -30 20 -19 24 -19 63 -6 31 11 50 12 78 5 44 -13 84 -50 84 -79 0
-25 15 -26 47 0 31 24 101 27 143 5 34 -17 70 -65 70 -92 0 -31 9 -33 46 -11
20 12 43 18 56 15 13 -4 32 3 53 19 62 47 151 44 210 -8 28 -24 35 -37 35 -68
l0 -37 48 4 c38 4 52 1 76 -18 33 -26 67 -94 59 -118 -5 -13 -3 -14 8 -3 19
18 59 15 97 -8 77 -47 109 -208 57 -284 -19 -29 -23 -41 -15 -56 5 -10 10 -42
10 -70 0 -46 -4 -56 -34 -86 -38 -38 -74 -44 -132 -19 -47 19 -78 87 -72 156
4 35 2 46 -8 42 -18 -7 -52 14 -59 37 -10 32 -22 23 -29 -21 -7 -46 -48 -94
-90 -105 -57 -14 -138 23 -167 78 -17 32 -29 127 -19 154 12 30 -3 32 -24 3
-8 -12 -19 -19 -24 -16 -5 4 -25 1 -44 -5 -47 -14 -100 -3 -138 28 l-30 26
-34 -36 c-26 -28 -41 -36 -68 -36 -55 0 -120 39 -146 88 -13 23 -28 40 -33 37
-5 -4 -9 -30 -9 -59 0 -39 -6 -62 -23 -87 -19 -29 -29 -34 -68 -37 -57 -4 -93
26 -111 92 l-12 45 -24 -20 c-24 -18 -25 -18 -53 2 -16 11 -29 27 -29 35 0 8
-7 14 -15 14 -11 0 -13 -7 -9 -29 5 -22 -1 -36 -25 -64 -37 -41 -80 -54 -122
-37 -61 26 -93 132 -48 164 20 14 20 16 5 37 -9 14 -16 43 -16 71 0 83 76 144
142 114 14 -7 16 -1 11 51 -4 47 -1 67 15 99 53 103 159 154 261 124z m981
-80 c0 -5 -2 -10 -4 -10 -3 0 -8 5 -11 10 -3 6 -1 10 4 10 6 0 11 -4 11 -10z
m-2273 -512 c-3 -7 -5 -2 -5 12 0 14 2 19 5 13 2 -7 2 -19 0 -25z m1118 -28
c17 -18 20 -19 41 -5 21 13 22 13 29 -12 22 -89 128 -142 193 -97 25 17 62 84
62 110 0 15 5 13 28 -9 54 -52 133 -60 201 -22 41 24 45 24 68 10 36 -24 115
-30 150 -13 l30 15 16 -71 c9 -39 25 -82 35 -96 30 -40 91 -70 145 -70 62 0
101 21 132 70 14 22 30 40 35 40 6 0 10 -19 10 -42 1 -81 59 -165 132 -190 28
-10 28 -10 29 -106 0 -114 5 -174 18 -222 6 -25 9 17 10 147 l1 182 34 16 c61
29 98 116 78 183 -20 64 -22 63 303 42 160 -11 320 -22 358 -26 l67 -6 0 -117
c0 -65 2 -180 5 -257 l5 -139 -20 60 c-10 33 -29 68 -41 78 -50 40 -125 10
-182 -76 -45 -66 -67 -141 -67 -228 0 -96 13 -150 88 -352 l65 -179 -94 -95
c-111 -112 -277 -243 -367 -290 -61 -32 -68 -33 -173 -33 -61 0 -119 -5 -130
-10 -10 -6 -26 -25 -35 -43 -45 -85 -35 -175 26 -241 34 -36 42 -40 86 -40 60
1 109 24 196 96 68 56 259 226 416 371 53 48 100 86 106 84 16 -5 19 -176 6
-285 -29 -231 -112 -408 -202 -427 -34 -8 -47 0 -30 17 21 21 14 83 -13 112
-49 53 -140 22 -178 -62 -24 -55 -28 -155 -8 -216 28 -83 123 -155 206 -156
100 0 167 46 230 159 39 70 90 230 104 326 7 46 9 11 10 -152 l1 -213 -47 -2
c-62 -1 -66 -2 -80 -11 -29 -18 -9 -27 58 -27 l70 0 -3 -32 -3 -33 -105 -7
c-58 -4 -116 -12 -130 -17 -44 -17 -124 -23 -155 -11 -25 9 -36 7 -84 -18 -31
-17 -108 -44 -172 -62 l-116 -31 -31 -62 -31 -62 -1 158 0 157 58 0 c64 0 128
25 167 65 38 37 20 53 -19 16 -39 -38 -74 -51 -136 -51 -76 0 -80 8 -80 168 0
143 -5 182 -23 182 -7 0 -8 -133 -3 -425 l7 -426 -30 -30 c-17 -17 -39 -29
-48 -27 -17 3 -18 37 -25 485 -5 412 -8 485 -22 509 -15 27 -16 -10 -14 -476
3 -461 5 -508 20 -532 17 -26 17 -27 -4 -43 -29 -20 -51 -19 -70 3 -23 26 -30
56 -38 167 l-7 100 -1 -90 c-2 -107 9 -159 38 -190 17 -19 27 -22 49 -15 41
11 71 28 117 66 l41 33 6 -58 c21 -200 21 -247 -3 -295 -52 -109 -222 -187
-495 -228 -116 -17 -463 -17 -575 0 -272 41 -460 130 -506 240 -15 37 -18 127
-7 259 l6 82 40 -34 c45 -39 67 -43 89 -17 21 22 30 469 21 960 -6 338 -6 342
-27 342 -29 0 -80 33 -107 69 -13 17 -26 31 -31 31 -4 0 -8 -178 -8 -395 l0
-395 -185 0 c-174 0 -185 -1 -195 -20 -11 -20 -8 -20 180 -20 l190 0 0 -35 0
-35 -210 0 -211 0 12 23 c11 21 11 21 -7 5 -33 -29 -107 -58 -152 -58 -53 0
-98 19 -135 56 -48 48 -52 72 -6 27 97 -93 198 -85 300 24 140 150 204 319
278 729 46 260 71 663 71 1172 l0 393 23 -7 c48 -14 47 -4 49 -423 l3 -396 35
65 c31 56 43 68 88 90 l52 25 0 182 c0 101 4 184 9 188 5 3 16 -3 23 -13 7
-10 25 -26 39 -36 30 -19 37 -14 59 42 13 35 51 59 125 81 22 7 53 18 70 24
l29 11 -24 7 c-14 4 -44 7 -67 8 -74 2 -47 21 30 21 60 1 69 3 52 13 -23 13
-199 16 -287 4 l-58 -7 0 65 c0 75 -3 73 115 78 49 2 38 3 -35 4 -58 1 -128
-2 -157 -6 l-51 -7 -4 63 -3 62 36 -5 c28 -5 41 -1 67 21 17 14 37 42 44 60
14 41 19 42 43 15z m-256 -47 c16 -20 28 -40 26 -44 -3 -4 -21 -2 -40 4 -31 9
-35 14 -35 44 0 43 11 42 49 -4z m-756 -2422 c12 -21 14 -30 5 -25 -7 5 -20 9
-28 9 -11 0 -15 14 -16 55 -2 51 -1 53 10 25 6 -16 19 -45 29 -64z m-5 -63
c-9 -7 -18 -22 -21 -33 -3 -13 -5 -8 -6 13 -1 27 3 32 21 32 19 0 20 -1 6 -12z
m7 -38 c3 -5 1 -10 -4 -10 -6 0 -11 5 -11 10 0 6 2 10 4 10 3 0 8 -4 11 -10z
m2630 -170 c4 -6 -9 -10 -32 -9 -34 1 -35 2 -13 9 35 11 38 11 45 0z m82 4
c-3 -3 -12 -4 -19 -1 -8 3 -5 6 6 6 11 1 17 -2 13 -5z m-167 -18 c0 -3 -4 -8
-10 -11 -5 -3 -10 -1 -10 4 0 6 5 11 10 11 6 0 10 -2 10 -4z m-1943 -143 c43
-38 96 -82 117 -98 37 -30 38 -32 31 -78 -9 -58 -5 -60 -152 72 l-113 101
-130 0 c-122 0 -130 1 -130 19 0 27 -11 32 -93 41 -52 5 -8 8 160 9 l231 1 79
-67z m-544 10 c-7 -2 -21 -2 -30 0 -10 3 -4 5 12 5 17 0 24 -2 18 -5z m2673
-78 c-2 -5 1 -18 6 -29 7 -12 7 -16 0 -12 -6 3 -13 0 -16 -6 -3 -7 -3 -3 -1 9
3 12 2 24 -2 26 -4 3 -9 -7 -10 -21 0 -15 4 -30 10 -34 9 -6 9 -8 0 -8 -7 0
-13 -7 -13 -16 0 -10 6 -14 14 -11 8 3 17 -1 20 -9 10 -25 7 -31 -14 -37 -14
-4 -18 -10 -14 -22 5 -13 9 -14 15 -3 5 7 9 8 9 2 0 -19 -11 -23 -36 -14 -15
6 -26 5 -30 -2 -4 -6 -3 -8 2 -5 6 3 15 2 22 -2 9 -5 8 -12 -3 -27 -14 -19
-14 -19 -15 1 0 16 -2 17 -10 5 -5 -8 -6 -17 -2 -20 4 -3 12 -14 18 -25 7 -11
19 -19 28 -19 13 1 13 -2 4 -19 -9 -18 -12 -19 -22 -5 -9 13 -13 13 -24 2 -17
-19 -15 -29 3 -14 8 7 16 9 16 4 6 -38 5 -54 -2 -54 -4 0 -11 5 -14 10 -3 6
-11 10 -17 10 -7 0 -2 -9 10 -20 12 -12 22 -25 22 -30 0 -16 -31 -39 -45 -34
-8 4 -15 1 -15 -7 0 -7 3 -10 6 -6 3 3 17 2 29 -3 16 -6 25 -5 28 3 2 7 3 5 3
-3 -1 -8 -11 -15 -22 -14 -11 0 -27 -7 -34 -15 -12 -13 -12 -14 3 -8 20 8 22
-3 5 -23 -11 -12 -10 -12 3 -2 13 10 20 8 35 -9 19 -21 19 -22 -4 -15 -15 5
-28 2 -39 -10 -16 -16 -16 -16 6 -9 16 5 21 4 17 -4 -4 -6 -2 -11 3 -11 6 0
11 5 11 12 0 9 3 9 11 1 16 -16 2 -33 -29 -34 -27 -1 -27 -1 -3 -8 14 -4 26
-12 27 -19 1 -7 0 -8 -3 -2 -3 8 -9 7 -19 -1 -11 -9 -14 -9 -14 0 0 7 -5 9
-10 6 -7 -4 -4 -13 7 -23 29 -27 27 -61 -3 -68 -17 -4 -30 -2 -36 7 -8 11 -9
10 -5 -3 3 -9 1 -19 -6 -22 -7 -3 9 -3 35 -1 39 4 46 2 42 -10 -7 -17 -24 -20
-24 -5 0 6 -5 10 -12 10 -8 0 -7 -6 4 -16 29 -29 -4 -80 -57 -88 -5 -1 -20 -7
-32 -14 -13 -7 -23 -9 -23 -5 0 4 -5 1 -10 -7 -7 -11 -12 -12 -21 -3 -6 6 -18
9 -27 6 -10 -4 -13 -2 -8 6 5 7 17 9 29 5 21 -6 21 -5 3 8 -17 13 -17 15 -1
31 17 17 9 22 -19 11 -9 -3 -16 -14 -17 -23 0 -10 -4 -8 -10 8 -5 13 -7 26 -4
29 3 3 5 -1 5 -9 1 -12 3 -11 13 1 7 8 24 21 40 27 28 13 39 37 12 27 -8 -4
-15 -10 -15 -15 0 -14 -24 -6 -31 11 -4 8 -2 18 2 21 5 3 0 15 -11 27 -11 11
-16 24 -11 27 5 3 16 -3 23 -14 13 -18 14 -18 25 5 6 13 7 24 2 24 -5 0 -9 -5
-9 -12 0 -8 -6 -7 -16 4 -9 9 -13 21 -9 28 6 9 10 9 17 -1 8 -11 9 -10 4 3 -8
26 30 44 43 21 7 -13 10 -14 11 -4 0 17 -46 61 -66 61 -7 0 -14 5 -14 10 0 6
7 10 15 10 8 0 15 4 15 8 0 14 -23 32 -42 32 -32 0 -19 18 18 25 l36 6 -24 23
c-27 27 -47 22 -22 -5 15 -17 15 -19 1 -19 -23 0 -24 6 -18 113 3 53 3 97 -1
97 -5 0 -8 11 -8 25 0 14 4 25 10 25 5 0 7 -6 4 -14 -3 -8 4 -20 15 -28 12 -8
18 -18 13 -22 -4 -5 2 -7 12 -5 11 2 21 11 23 19 3 10 2 11 -4 3 -6 -8 -14 -5
-28 11 -11 12 -20 27 -20 34 0 17 152 139 168 134 5 -1 6 2 3 7 -9 14 66 70
92 68 12 -1 21 -6 18 -12z m-19 -244 c-11 -29 -27 -33 -27 -6 0 11 23 32 37
35 1 0 -4 -13 -10 -29z m-297 -237 c0 -8 -5 -12 -10 -9 -6 4 -8 11 -5 16 9 14
15 11 15 -7z m-16 -30 c3 -8 2 -12 -4 -9 -5 3 -24 -9 -41 -27 l-31 -33 33 43
c18 23 33 42 35 42 1 0 5 -7 8 -16z m41 -4 c3 -5 1 -10 -4 -10 -6 0 -11 5 -11
10 0 6 2 10 4 10 3 0 8 -4 11 -10z m55 -50 c13 -9 13 -11 0 -20 -8 -5 -22 -9
-30 -9 -11 0 -11 2 -2 6 10 4 10 8 1 19 -14 17 7 20 31 4z m-1129 -150 c28 0
53 -13 115 -60 43 -33 82 -60 85 -60 3 0 38 24 78 54 44 33 87 57 109 61 78
12 172 21 172 16 0 -3 -33 -28 -73 -54 -39 -27 -121 -83 -182 -126 l-110 -77
-135 102 c-74 56 -153 118 -175 137 l-40 35 60 -14 c33 -7 76 -14 96 -14z
m1265 -148 c-4 -3 -11 0 -16 8 -15 24 -11 33 6 15 9 -9 13 -19 10 -23z m41 22
c-3 -3 -12 -4 -19 -1 -8 3 -5 6 6 6 11 1 17 -2 13 -5z m-55 -37 c29 -41 31
-55 6 -63 -24 -7 -38 4 -19 15 9 6 10 11 2 15 -6 4 -11 3 -11 -3 0 -18 -26 -1
-26 17 -1 9 -4 24 -8 32 -13 31 33 20 56 -13z m-168 -1 c-3 -9 -12 -12 -22 -9
-15 6 -9 11 25 22 1 1 0 -5 -3 -13z m46 5 c0 -5 9 -11 20 -14 11 -3 20 -1 20
4 0 15 17 10 24 -7 4 -10 2 -13 -7 -8 -6 3 0 -5 16 -20 27 -27 35 -46 18 -46
-5 0 -11 6 -14 14 -3 9 -15 12 -31 9 -15 -3 -26 -1 -26 6 0 6 6 11 13 12 6 0
3 4 -8 8 -27 11 -34 5 -28 -20 5 -17 12 -20 39 -17 30 4 33 2 28 -17 -9 -29
-13 -31 -28 -9 -14 18 -15 18 -36 -6 -12 -14 -19 -20 -16 -13 4 6 1 13 -5 15
-8 3 -8 10 2 27 12 20 12 24 -6 37 -19 15 -19 15 -1 12 10 -2 21 3 23 10 3 6
0 12 -6 12 -6 0 -11 5 -11 10 0 6 5 10 10 10 6 0 10 -4 10 -9z m136 -96 c-30
-16 -43 -14 -31 4 3 6 18 11 33 11 l27 0 -29 -15z m-28 -25 c4 0 7 -18 7 -39
0 -22 -3 -37 -7 -34 -5 2 -8 0 -8 -6 0 -5 6 -12 13 -14 9 -4 8 -8 -3 -16 -13
-9 -12 -11 5 -12 12 0 15 -3 7 -6 -10 -4 -9 -8 5 -19 17 -13 17 -13 0 -14 -10
0 -20 6 -23 14 -8 20 -32 28 -40 13 -4 -7 -4 -9 0 -5 12 11 49 -29 41 -43 -5
-8 -4 -10 3 -5 7 4 12 2 12 -4 0 -7 7 -9 16 -6 8 3 12 2 9 -4 -3 -6 -12 -10
-18 -10 -7 0 -13 -12 -14 -27 0 -15 -6 -29 -12 -31 -6 -2 -11 -8 -11 -13 0
-17 21 2 30 27 5 13 14 24 20 24 16 0 12 -14 -16 -55 -14 -21 -21 -41 -17 -44
12 -8 12 -51 0 -44 -5 3 -6 11 -3 19 8 21 -29 37 -44 18 -11 -13 -15 -12 -32
6 -11 11 -18 26 -15 33 2 7 -2 31 -8 55 -11 35 -11 42 1 42 8 0 14 -8 15 -17
0 -11 3 -13 6 -5 2 6 16 12 30 12 18 0 24 -4 20 -14 -4 -10 -1 -13 9 -9 16 6
19 23 3 23 -5 0 -7 4 -4 10 3 5 1 18 -5 27 -10 16 -11 16 -7 -2 6 -32 -37 -31
-62 2 -26 32 -26 43 -3 44 12 0 9 4 -10 13 -15 6 -24 16 -20 21 11 16 36 11
53 -10 13 -15 20 -17 31 -7 8 6 18 9 21 5 4 -3 7 -1 7 5 0 12 -61 52 -79 52
-7 0 -9 -5 -5 -12 5 -9 3 -9 -9 1 -18 14 -14 33 6 29 18 -4 67 32 67 49 0 12
2 12 16 -1 8 -9 18 -16 22 -16z m43 -4 c-10 -11 -10 -20 -1 -36 6 -12 9 -25 5
-28 -3 -3 -8 4 -12 16 -3 12 -10 22 -16 22 -5 0 -2 9 8 20 21 23 34 28 16 6z
m-91 -93 c0 -17 -5 -16 -24 3 -23 22 -20 37 4 22 11 -7 20 -18 20 -25z m88 -8
c-3 -3 -9 2 -12 12 -6 14 -5 15 5 6 7 -7 10 -15 7 -18z m-164 -30 c-7 -16 -24
-21 -24 -6 0 8 7 13 27 20 1 1 0 -6 -3 -14z m-1 -112 c2 -5 7 -21 10 -38 4
-16 4 -24 1 -17 -3 6 -12 12 -20 12 -17 0 -19 17 -1 23 9 4 8 8 -3 16 -9 7
-10 11 -3 11 6 0 14 -3 16 -7z m108 -124 c6 -12 2 -19 -17 -28 -15 -6 -23 -7
-19 -1 3 5 2 10 -4 10 -5 0 -11 -6 -13 -12 -3 -9 -10 -8 -22 5 -17 16 -17 17
1 15 10 -2 20 2 23 7 2 6 11 18 20 28 11 13 16 14 19 5 2 -7 7 -20 12 -29z
m-2808 -15 c95 -10 95 -25 0 -19 -80 5 -78 1 12 -26 23 -6 17 -7 -25 -3 -104
9 -122 15 -117 35 3 10 0 21 -7 24 -6 3 7 3 29 0 22 -3 71 -8 108 -11z m157
-24 c10 -6 2 -7 -25 -3 -49 7 -58 13 -19 13 16 0 36 -5 44 -10z m88 -7 c-10
-2 -28 -2 -40 0 -13 2 -5 4 17 4 22 1 32 -1 23 -4z m2715 0 c-13 -2 -33 -2
-45 0 -13 2 -3 4 22 4 25 0 35 -2 23 -4z m-2459 -21 c2 -4 -14 -6 -37 -4 -68
5 -76 10 -20 11 28 0 54 -2 57 -7z m-406 -9 c-10 -2 -26 -2 -35 0 -10 3 -2 5
17 5 19 0 27 -2 18 -5z m-128 -23 l35 -8 -35 0 c-19 0 -53 6 -75 13 l-40 14
40 -6 c22 -3 56 -9 75 -13z m217 14 c-3 -3 -12 -4 -19 -1 -8 3 -5 6 6 6 11 1
17 -2 13 -5z m131 -11 c-10 -2 -26 -2 -35 0 -10 3 -2 5 17 5 19 0 27 -2 18 -5z
m119 -9 c-3 -3 -12 -4 -19 -1 -8 3 -5 6 6 6 11 1 17 -2 13 -5z m-30 -40 c-3
-3 -12 -4 -19 -1 -8 3 -5 6 6 6 11 1 17 -2 13 -5z m-490 -140 c-3 -3 -12 -4
-19 -1 -8 3 -5 6 6 6 11 1 17 -2 13 -5z m63 -10 c0 -2 -11 -4 -25 -4 -14 0
-25 4 -25 9 0 4 11 6 25 3 14 -2 25 -6 25 -8z m53 -11 c-7 -2 -19 -2 -25 0 -7
3 -2 5 12 5 14 0 19 -2 13 -5z m100 -10 c-7 -2 -19 -2 -25 0 -7 3 -2 5 12 5
14 0 19 -2 13 -5z m330 -406 c7 -7 13 -18 15 -26 4 -17 -26 -39 -47 -35 -66
12 -70 14 -64 32 4 9 12 22 17 29 14 16 64 16 79 0z m2994 -43 c-3 -3 -12 -4
-19 -1 -8 3 -5 6 6 6 11 1 17 -2 13 -5z"/>
<path d="M3800 6061 l-65 -6 0 -100 0 -100 123 -3 123 -3 -2 83 c-1 48 3 92 9
105 7 12 12 24 12 27 0 7 -107 5 -200 -3z"/>
<path d="M3798 5783 c-63 -4 -68 -5 -68 -27 l0 -23 118 5 c124 5 155 13 146
37 -6 15 -29 16 -196 8z"/>
<path d="M5348 5713 c7 -3 16 -2 19 1 4 3 -2 6 -13 5 -11 0 -14 -3 -6 -6z"/>
<path d="M4687 5703 c-3 -5 32 -7 76 -5 141 4 156 9 40 10 -61 1 -114 -1 -116
-5z"/>
<path d="M5326 5569 c-160 -13 -117 -26 115 -33 201 -6 241 -5 228 8 -4 4
-148 23 -219 29 -19 2 -75 0 -124 -4z"/>
<path d="M5760 5360 c0 -27 4 -40 14 -40 8 0 12 9 11 23 -1 12 -3 30 -4 40 -2
35 -21 16 -21 -23z"/>
<path d="M4916 5298 c-11 -38 -19 -295 -10 -315 5 -11 11 46 14 157 3 96 5
176 4 178 -1 1 -4 -8 -8 -20z"/>
<path d="M5699 5277 c-55 -37 -86 -105 -119 -261 -16 -78 -26 -58 -33 69 -5
107 -27 179 -58 195 -10 6 -32 10 -49 10 -27 0 -34 -5 -52 -47 -18 -42 -20
-59 -15 -148 22 -342 26 -433 32 -637 3 -126 2 -228 -2 -228 -4 0 -16 14 -25
30 -24 42 -82 43 -121 3 -75 -79 -75 -205 0 -292 104 -122 243 -44 298 166 10
36 19 144 25 283 8 195 13 237 36 315 45 155 97 246 126 217 4 -4 4 -53 -2
-107 -22 -227 -6 -370 47 -412 15 -13 35 -23 43 -23 30 1 100 39 143 79 l44
41 12 -40 c30 -101 126 -154 218 -119 92 34 164 182 119 244 -12 17 -15 17
-41 -13 -33 -37 -82 -43 -108 -14 -25 27 -21 39 27 93 78 86 135 258 122 367
-16 138 -83 199 -179 163 -39 -15 -96 -70 -119 -115 -34 -67 -86 -230 -99
-313 -13 -85 -22 -104 -41 -85 -8 8 -15 76 -19 205 -11 273 -29 351 -89 382
-41 21 -82 19 -121 -8z m549 -229 c17 -17 15 -96 -5 -154 -17 -51 -60 -124
-73 -124 -41 0 -12 218 36 271 20 22 26 23 42 7z"/>
<path d="M4675 5108 c-8 -194 -6 -228 10 -231 13 -3 19 393 6 406 -5 5 -12
-64 -16 -175z"/>
<path d="M5263 5200 c0 -47 2 -66 4 -42 2 23 2 61 0 85 -2 23 -4 4 -4 -43z"/>
<path d="M5100 5198 c-1 -7 -3 -48 -6 -90 -5 -67 -3 -78 10 -78 13 0 16 14 16
90 0 53 -4 90 -10 90 -5 0 -10 -6 -10 -12z"/>
<path d="M4423 4971 c-38 -24 -95 -137 -125 -250 -40 -152 -22 -397 36 -496
92 -156 220 -145 307 26 42 84 61 177 58 283 l-3 90 34 12 c19 7 38 13 42 13
3 1 8 -59 10 -131 3 -105 9 -146 26 -192 46 -127 100 -176 190 -176 62 0 94
14 144 67 42 44 78 119 101 213 41 166 48 432 13 484 -31 49 -97 41 -139 -15
-15 -21 -22 -58 -32 -185 -14 -163 -35 -247 -74 -295 l-18 -23 -18 28 c-16 25
-19 53 -19 246 -1 206 -2 220 -22 247 -38 51 -93 44 -163 -22 -27 -25 -62 -48
-79 -51 -28 -6 -31 -3 -49 37 -11 24 -36 59 -57 77 -30 26 -45 32 -84 32 -29
0 -59 -8 -79 -19z m148 -168 c58 -28 73 -48 43 -60 -34 -13 -138 59 -117 81 9
9 9 9 74 -21z m-111 -122 c0 -4 18 -21 40 -36 33 -23 40 -33 40 -61 0 -63 -22
-136 -50 -167 l-27 -31 -17 32 c-24 47 -20 272 5 272 5 0 9 -4 9 -9z"/>
<path d="M5750 4333 c0 -55 3 -148 7 -207 6 -102 7 -106 20 -76 9 23 13 80 13
190 0 144 -2 158 -20 175 -20 18 -20 17 -20 -82z"/>
<path d="M5895 4399 c-11 -44 -1 -272 12 -276 8 -3 13 14 15 54 3 54 5 58 29
61 14 2 37 -2 52 -7 22 -9 25 -14 18 -33 -22 -60 -22 -78 -2 -78 16 0 21 10
28 53 11 62 4 74 -46 82 -96 16 -88 8 -90 88 -2 77 -7 93 -16 56z"/>
<path d="M4678 4210 c-13 -30 -17 -215 -18 -796 0 -514 -2 -593 -15 -610 -15
-19 -16 -19 -13 2 3 23 -29 77 -42 69 -4 -3 -11 1 -13 7 -3 7 -6 -10 -6 -39
-1 -28 -5 -55 -11 -58 -24 -15 -9 -42 30 -55 38 -12 42 -12 65 10 15 14 26 39
30 64 8 57 2 1424 -7 1406z"/>
<path d="M5107 4150 c-3 -8 -8 -314 -9 -680 -3 -739 -1 -718 -70 -760 -56 -34
-105 -23 -133 30 -13 25 -15 120 -15 695 0 584 -2 665 -15 665 -13 0 -15 -28
-15 -187 0 -104 -3 -406 -7 -673 -5 -440 -4 -489 11 -518 22 -42 63 -62 130
-62 47 0 60 4 89 30 23 20 38 45 46 74 7 31 11 222 10 608 -2 559 -8 807 -22
778z"/>
<path d="M4921 3538 c0 -326 2 -588 4 -583 8 23 12 1175 4 1175 -5 0 -9 -263
-8 -592z"/>
<path d="M5508 3988 c-1 -2 -5 -273 -8 -603 -5 -552 -6 -603 -23 -628 -52 -80
-144 -79 -180 3 -8 17 -13 208 -17 594 -4 443 -8 570 -17 574 -10 3 -13 -117
-13 -577 0 -632 0 -631 55 -667 34 -22 106 -22 158 -1 69 29 67 13 67 692 -1
535 -4 638 -22 613z"/>
<path d="M4573 3060 c0 -36 2 -50 4 -32 2 17 2 47 0 65 -2 17 -4 3 -4 -33z"/>
<path d="M4374 2724 c3 -9 6 -17 6 -20 0 -14 140 -70 238 -94 151 -37 271 -50
479 -50 257 0 497 30 614 76 67 27 139 74 139 91 0 11 -10 6 -35 -16 -66 -58
-237 -95 -508 -111 -380 -21 -696 18 -880 110 -43 22 -57 25 -53 14z"/>
<path d="M4374 2620 c3 -47 8 -58 35 -81 84 -70 265 -129 452 -149 148 -15
411 -12 539 5 216 31 404 105 444 176 l20 34 -40 -38 c-106 -105 -356 -167
-671 -167 -283 0 -484 32 -633 101 -81 37 -115 70 -135 130 l-15 44 4 -55z"/>
<path d="M6212 2814 c-9 -10 -6 -12 19 -9 40 5 46 11 16 17 -13 2 -28 -1 -35
-8z"/>
<path d="M6070 2791 c0 -10 19 -25 25 -20 1 2 -3 10 -11 17 -8 7 -14 8 -14 3z"/>
<path d="M6054 2772 c5 -8 -1 -11 -16 -9 -25 2 -38 -27 -19 -46 8 -8 11 -3 11
19 0 19 3 25 9 16 6 -10 10 -10 20 2 9 11 9 16 0 22 -8 4 -9 3 -5 -4z"/>
<path d="M5980 2654 c0 -8 5 -12 10 -9 6 4 8 11 5 16 -9 14 -15 11 -15 -7z"/>
<path d="M5997 2626 c-4 -10 -5 -21 -2 -24 9 -9 17 6 13 25 -3 17 -4 17 -11
-1z"/>
<path d="M5987 2576 c-8 -21 2 -26 29 -14 18 8 21 14 12 20 -19 12 -35 10 -41
-6z"/>
<path d="M6146 2567 c3 -10 9 -15 12 -12 3 3 0 11 -7 18 -10 9 -11 8 -5 -6z"/>
<path d="M6080 2480 c0 -5 5 -10 10 -10 6 0 10 5 10 10 0 6 -4 10 -10 10 -5 0
-10 -4 -10 -10z"/>
<path d="M6048 2453 c7 -3 16 -2 19 1 4 3 -2 6 -13 5 -11 0 -14 -3 -6 -6z"/>
<path d="M6074 2400 c1 -8 10 -16 21 -17 15 -1 15 0 3 3 -9 3 -19 11 -21 17
-2 7 -3 5 -3 -3z"/>
<path d="M6050 2390 c6 -11 13 -20 16 -20 2 0 0 9 -6 20 -6 11 -13 20 -16 20
-2 0 0 -9 6 -20z"/>
<path d="M6128 2333 c7 -3 16 -2 19 1 4 3 -2 6 -13 5 -11 0 -14 -3 -6 -6z"/>
<path d="M6150 2265 c14 -8 30 -14 35 -14 6 0 -1 6 -15 14 -14 8 -29 14 -35
14 -5 0 1 -6 15 -14z"/>
<path d="M6046 2254 c-4 -10 -1 -14 6 -12 15 5 23 28 10 28 -5 0 -13 -7 -16
-16z"/>
<path d="M6050 2161 c0 -6 5 -13 11 -17 8 -4 3 -12 -12 -20 -20 -11 -21 -13
-6 -14 10 0 25 7 33 15 10 10 11 15 4 15 -7 0 -10 7 -6 15 3 9 0 15 -9 15 -8
0 -15 -4 -15 -9z"/>
<path d="M6125 2140 c-3 -6 1 -7 9 -4 18 7 21 14 7 14 -6 0 -13 -4 -16 -10z"/>
<path d="M6110 2070 c0 -5 5 -10 11 -10 5 0 7 5 4 10 -3 6 -8 10 -11 10 -2 0
-4 -4 -4 -10z"/>
<path d="M6021 1964 c0 -11 3 -14 6 -6 3 7 2 16 -1 19 -3 4 -6 -2 -5 -13z"/>
<path d="M6110 1920 c0 -5 5 -10 10 -10 6 0 10 5 10 10 0 6 -4 10 -10 10 -5 0
-10 -4 -10 -10z"/>
<path d="M6090 1891 c27 -22 40 -26 40 -12 0 5 -8 11 -17 15 -10 3 -25 9 -33
12 -8 3 -4 -4 10 -15z"/>
<path d="M6058 1775 c13 -9 26 -14 29 -11 8 8 3 12 -27 21 l-25 7 23 -17z"/>
<path d="M6100 1640 c0 -5 5 -10 11 -10 5 0 7 5 4 10 -3 6 -8 10 -11 10 -2 0
-4 -4 -4 -10z"/>
<path d="M6090 1565 c0 -8 5 -15 10 -15 6 0 10 7 10 15 0 8 -4 15 -10 15 -5 0
-10 -7 -10 -15z"/>
<path d="M5360 8650 c0 -5 5 -10 10 -10 6 0 10 5 10 10 0 6 -4 10 -10 10 -5 0
-10 -4 -10 -10z"/>
<path d="M3948 7643 c6 -2 18 -2 25 0 6 3 1 5 -13 5 -14 0 -19 -2 -12 -5z"/>
<path d="M5560 7480 c0 -5 5 -10 11 -10 5 0 7 5 4 10 -3 6 -8 10 -11 10 -2 0
-4 -4 -4 -10z"/>
<path d="M5643 7473 c32 -2 81 -2 110 0 29 2 3 3 -58 3 -60 0 -84 -1 -52 -3z"/>
<path d="M5998 7463 c7 -3 16 -2 19 1 4 3 -2 6 -13 5 -11 0 -14 -3 -6 -6z"/>
<path d="M6483 7423 c9 -2 25 -2 35 0 9 3 1 5 -18 5 -19 0 -27 -2 -17 -5z"/>
<path d="M6558 7413 c12 -2 30 -2 40 0 9 3 -1 5 -23 4 -22 0 -30 -2 -17 -4z"/>
<path d="M6695 7395 c44 -7 91 -13 105 -13 45 0 -39 16 -115 22 l-70 5 80 -14z"/>
<path d="M6058 7373 c7 -3 16 -2 19 1 4 3 -2 6 -13 5 -11 0 -14 -3 -6 -6z"/>
<path d="M6108 7373 c6 -2 18 -2 25 0 6 3 1 5 -13 5 -14 0 -19 -2 -12 -5z"/>
<path d="M6843 7373 c9 -2 23 -2 30 0 6 3 -1 5 -18 5 -16 0 -22 -2 -12 -5z"/>
<path d="M5615 7019 c-4 -6 -13 -8 -21 -5 -8 3 -11 0 -8 -9 3 -7 12 -16 20
-19 9 -3 12 -1 9 5 -4 5 -1 16 5 24 7 8 10 15 7 15 -3 0 -9 -5 -12 -11z"/>
</g>
</svg>
